<svg width="18" height="18" viewBox="0 0 18 18" fill="none" xmlns="http://www.w3.org/2000/svg">
<path d="M17.54 3.08C17.31 2.51 16.97 1.94 16.51 1.48C16.05 1.02 15.48 0.68 14.92 0.45C14.35 0.23 13.67 0.11 12.76 0H5.24C4.33 0 3.65 0.23 3.08 0.46C2.51 0.68 1.94 1.03 1.48 1.48C1.02 1.94 0.68 2.51 0.45 3.08C0.23 3.65 0.11 4.33 0 5.24V12.76C0 13.67 0.23 14.36 0.46 14.92C0.69 15.49 1.03 16.06 1.49 16.51C1.95 16.97 2.52 17.31 3.08 17.53C3.65 17.76 4.33 17.87 5.24 17.99H12.76C13.67 17.99 14.35 17.76 14.92 17.53C15.49 17.3 16.06 16.96 16.51 16.51C16.97 16.05 17.31 15.48 17.54 14.92C17.77 14.35 17.88 13.67 18 12.76V5.24C18 4.33 17.77 3.65 17.54 3.08ZM16.4 12.65C16.4 13.56 16.17 14.02 16.06 14.36C15.95 14.82 15.72 15.04 15.38 15.39C15.04 15.73 14.81 15.96 14.35 16.07C14.01 16.18 13.55 16.3 12.64 16.41H5.35C4.44 16.41 3.98 16.18 3.64 16.07C3.18 15.96 2.96 15.73 2.61 15.39C2.27 15.05 2.04 14.82 1.93 14.36C1.82 14.02 1.7 13.56 1.59 12.65V5.35C1.59 4.44 1.82 3.98 1.93 3.64C2.05 3.3 2.28 2.96 2.51 2.62C2.85 2.39 3.19 2.16 3.65 2.05C3.99 1.94 4.45 1.82 5.36 1.71C6.27 1.59 6.49 1.59 9 1.59H12.65C13.56 1.59 14.02 1.82 14.36 1.93C14.82 2.04 15.04 2.27 15.39 2.61C15.73 2.95 15.96 3.18 16.07 3.63C16.18 3.97 16.3 4.43 16.41 5.34V12.65H16.4ZM9 4.44C6.38 4.44 4.33 6.49 4.33 9.11C4.33 11.73 6.38 13.78 9 13.78C11.62 13.78 13.67 11.73 13.67 9.11C13.56 6.49 11.51 4.44 9 4.44ZM9 12.07C7.29 12.07 6.04 10.7 6.04 8.99C6.04 7.29 7.4 6.04 9 6.04C10.6 6.04 11.96 7.4 11.96 9C11.96 10.59 10.59 12.07 9 12.07ZM13.78 3.08C13.15 3.08 12.64 3.59 12.64 4.22C12.64 4.85 13.15 5.36 13.78 5.36C14.41 5.36 14.92 4.85 14.92 4.22C14.92 3.59 14.41 3.08 13.78 3.08Z" fill="white"/>
</svg>
