<svg width="15" height="16" viewBox="0 0 15 16" fill="none" xmlns="http://www.w3.org/2000/svg">
<path d="M14.6484 13.8828L11.1621 10.3672C11.9824 9.15625 12.3047 7.74023 12.1289 6.11914C11.9141 4.75195 11.3281 3.59961 10.3711 2.66211C9.41406 1.70508 8.25195 1.12891 6.88477 0.933594C5.53711 0.777344 4.31641 0.992188 3.22266 1.57812C2.14844 2.18359 1.30859 3.02344 0.703125 4.09766C0.117188 5.19141 -0.0976563 6.41211 0.0585938 7.75977C0.253906 9.12695 0.830078 10.2891 1.78711 11.2461C2.72461 12.2227 3.87695 12.8086 5.24414 13.0039C6.86523 13.1797 8.28125 12.8574 9.49219 12.0371L13.0078 15.5234C13.2422 15.7578 13.5156 15.875 13.8281 15.875C14.1406 15.875 14.4141 15.7578 14.6484 15.5234C14.8828 15.2891 15 15.0156 15 14.7031C15 14.3906 14.8828 14.1172 14.6484 13.8828ZM2.31445 6.96875C2.33398 5.91406 2.70508 5.03516 3.42773 4.33203C4.13086 3.60937 5.00977 3.23828 6.06445 3.21875C7.11914 3.23828 8.00781 3.60937 8.73047 4.33203C9.43359 5.03516 9.79492 5.91406 9.81445 6.96875C9.79492 8.02344 9.43359 8.90234 8.73047 9.60547C8.00781 10.3281 7.11914 10.6992 6.06445 10.7188C5.00977 10.6992 4.13086 10.3281 3.42773 9.60547C2.70508 8.90234 2.33398 8.02344 2.31445 6.96875Z" fill="white"/>
</svg>
