<svg width="13" height="16" viewBox="0 0 13 16" fill="none" xmlns="http://www.w3.org/2000/svg">
<path d="M2.27003 9.09003C3.05003 7.75003 2.02003 7.45003 1.86003 6.48003C1.20003 2.50003 6.55003 -0.219973 9.35003 2.56003C11.29 4.49003 10.01 10.41 6.88003 9.79003C3.88003 9.20003 8.35003 4.49003 5.96003 3.57003C4.02003 2.82003 2.98003 5.87003 3.91003 7.39003C3.37003 10 2.21003 12.45 2.68003 15.72C4.21003 14.64 4.72003 12.56 5.15003 10.4C5.92003 10.86 6.33003 11.33 7.31003 11.4C10.92 11.68 12.94 7.88003 12.44 4.37003C12 1.26003 8.83003 -0.319973 5.45003 0.0500274C2.78003 0.340027 0.120026 2.45003 0.0100264 5.47003C-0.0599736 7.32003 0.470026 8.70003 2.27003 9.09003Z" fill="white"/>
</svg>
