<svg width="16" height="13" viewBox="0 0 16 13" fill="none" xmlns="http://www.w3.org/2000/svg">
<path d="M15.56 0.24C14.93 0.62 14.22 0.89 13.47 1.04C12.87 0.4 12.02 0 11.08 0C9.26 0 7.8 1.47 7.8 3.28C7.8 3.54 7.83 3.79 7.88 4.03C5.15 3.89 2.73 2.59 1.11 0.6C0.83 1.08 0.67 1.65 0.67 2.25C0.67 3.39 1.25 4.39 2.13 4.98C1.59 4.96 1.09 4.82 0.64 4.57V4.61C0.64 6.2 1.77 7.53 3.27 7.83C3 7.9 2.71 7.94 2.41 7.94C2.2 7.94 2 7.92 1.79 7.89C2.21 9.2 3.42 10.14 4.86 10.17C3.74 11.05 2.32 11.58 0.78 11.58C0.51 11.58 0.25 11.56 0 11.53C1.45 12.46 3.18 13 5.03 13C11.07 13 14.37 8 14.37 3.66L14.36 3.24C15 2.77 15.56 2.2 16 1.54C15.41 1.8 14.78 1.98 14.12 2.06C14.79 1.65 15.31 1 15.56 0.24Z" fill="white"/>
</svg>
